<?xml version="1.0" encoding="UTF-8" standalone="no"?>
<!-- Created with Inkscape (http://www.inkscape.org/) -->

<svg
   width="82.382256mm"
   height="81.778297mm"
   viewBox="0 0 82.382256 81.778297"
   version="1.1"
   id="svg5"
   inkscape:version="1.1.2 (0a00cf5339, 2022-02-04, custom)"
   sodipodi:docname="susnetmono.svg"
   inkscape:export-filename="/home/william/Pictures/susnetmono.png"
   inkscape:export-xdpi="96"
   inkscape:export-ydpi="96"
   xmlns:inkscape="http://www.inkscape.org/namespaces/inkscape"
   xmlns:sodipodi="http://sodipodi.sourceforge.net/DTD/sodipodi-0.dtd"
   xmlns:xlink="http://www.w3.org/1999/xlink"
   xmlns="http://www.w3.org/2000/svg"
   xmlns:svg="http://www.w3.org/2000/svg">
  <sodipodi:namedview
     id="namedview7"
     pagecolor="#505050"
     bordercolor="#eeeeee"
     borderopacity="1"
     inkscape:pageshadow="0"
     inkscape:pageopacity="0"
     inkscape:pagecheckerboard="0"
     inkscape:document-units="mm"
     showgrid="false"
     showguides="false"
     fit-margin-top="8"
     fit-margin-left="8"
     fit-margin-right="8"
     fit-margin-bottom="8"
     inkscape:zoom="1"
     inkscape:cx="118.5"
     inkscape:cy="119.5"
     inkscape:window-width="1366"
     inkscape:window-height="681"
     inkscape:window-x="0"
     inkscape:window-y="25"
     inkscape:window-maximized="1"
     inkscape:current-layer="layer1"
     lock-margins="true" />
  <defs
     id="defs2">
    <linearGradient
       inkscape:collect="always"
       id="linearGradient23515">
      <stop
         style="stop-color:#d8efff;stop-opacity:1;"
         offset="0"
         id="stop23511" />
      <stop
         style="stop-color:#d8efff;stop-opacity:0;"
         offset="1"
         id="stop23513" />
    </linearGradient>
    <rect
       x="62.050812"
       y="68.675232"
       width="656.82928"
       height="251.61536"
       id="rect3884" />
    <linearGradient
       inkscape:collect="always"
       xlink:href="#linearGradient23515"
       id="linearGradient23517"
       x1="67.318687"
       y1="172.78513"
       x2="609.97595"
       y2="172.78513"
       gradientUnits="userSpaceOnUse" />
  </defs>
  <g
     inkscape:label="Layer 1"
     inkscape:groupmode="layer"
     id="layer1"
     transform="translate(14.730171,-34.452267)">
    <ellipse
       style="fill:none;fill-opacity:1;stroke:#d8efff;stroke-width:5;stroke-miterlimit:4;stroke-dasharray:none;stroke-opacity:1"
       id="path44290"
       cx="23.312206"
       cy="76.538223"
       rx="27.542377"
       ry="27.542379" />
    <path
       style="fill:#d8efff;fill-opacity:1;stroke:none;stroke-width:0.10049"
       d="m 19.150013,94.71122 c -0.945107,-0.694972 -1.372363,-1.398033 -1.463199,-2.407737 -0.09217,-1.024528 0.765413,-1.45608 2.755298,-1.386521 0.439962,0.01538 1.064244,0.03635 1.387291,0.0466 0.754073,0.02393 1.409976,-0.262117 1.969112,-0.858762 0.396162,-0.422739 0.504293,-0.625604 1.022582,-1.918484 0.500471,-1.248421 0.587186,-1.548764 0.635339,-2.200416 0.07599,-1.028337 -0.122291,-1.675162 -0.719676,-2.347723 -0.772193,-0.869368 -1.39301,-1.27062 -2.87832,-1.86034 -2.519948,-1.000517 -4.190026,-0.897135 -5.152083,0.318904 -0.142496,0.180113 -0.623781,1.155752 -1.069522,2.168088 -0.719443,1.633946 -0.856386,1.885811 -1.219647,2.243184 -0.955825,0.940331 -2.486079,1.116901 -4.7047883,0.542862 C 7.3804469,86.447543 3.6396518,84.354824 2.8427449,83.207781 2.7136333,83.021941 2.5885926,82.634891 2.564877,82.347669 2.528381,81.90567 2.557087,81.778759 2.7517582,81.521504 3.2875417,80.813468 4.3019835,80.55983 5.5174818,80.829996 c 0.7169035,0.159343 1.6551121,0.693062 2.8278251,1.608662 0.3844136,0.300131 0.7156532,0.538487 0.736089,0.529677 0.020437,-0.0088 0.4605493,-0.71938 0.9780311,-1.579046 1.231338,-2.045563 2.439607,-3.877309 5.081192,-7.703135 1.192211,-1.726687 2.886525,-4.216211 3.765142,-5.532275 3.946148,-5.910856 6.337853,-8.734224 8.009189,-9.454709 0.861704,-0.371466 1.458815,-0.377013 3.011195,-0.02797 1.395053,0.313668 4.7599,1.62015 5.558961,2.158399 1.376978,0.927536 2.347948,1.947767 2.813017,2.955735 0.351807,0.762491 0.714383,2.230473 0.822558,3.33034 0.325987,3.314475 -0.209193,6.342582 -2.186038,12.368836 -0.440127,1.341689 -1.080423,3.325636 -1.422878,4.40877 -0.838598,2.652344 -1.411695,4.134921 -3.007409,7.780022 -1.428282,3.26264 -1.666534,3.685617 -2.481269,4.405092 -0.523472,0.462264 -1.107357,0.665656 -2.180851,0.759683 -1.444497,0.126521 -2.681354,-0.05297 -5.387952,-0.781875 -1.626651,-0.43807 -2.621808,-0.843141 -3.304271,-1.344982 z M 30.182448,69.338329 c 1.425844,0.457062 2.33937,0.58536 3.043483,0.427435 1.846103,-0.414062 2.721639,-1.542072 2.337476,-3.011519 -0.183906,-0.703451 -0.687764,-1.354328 -1.507023,-1.946747 -0.610206,-0.44125 -0.880057,-0.571077 -2.032898,-0.978038 -1.581329,-0.558221 -2.376607,-0.666464 -4.013238,-0.54623 -1.16359,0.08548 -2.163633,0.398089 -2.520892,0.788016 -0.271842,0.296696 -0.488487,0.900506 -0.452669,1.261625 0.04064,0.409705 0.435317,1.201728 0.813326,1.63214 0.419928,0.478144 1.193852,1.023262 2.106361,1.483629 0.426614,0.215229 0.79459,0.404914 0.817724,0.421522 0.02314,0.01661 0.656894,0.227284 1.40835,0.468167 z"
       id="path14987" />
    <circle
       style="fill:#d8efff;fill-opacity:1;stroke:none;stroke-width:6.07416;stroke-miterlimit:4;stroke-dasharray:none;stroke-opacity:1"
       id="path51155"
       cx="9.9605465"
       cy="52.952267"
       r="10.5" />
    <circle
       style="fill:#d8efff;fill-opacity:1;stroke:none;stroke-width:6.07416;stroke-miterlimit:4;stroke-dasharray:none;stroke-opacity:1"
       id="path51155-5"
       cx="49.152084"
       cy="85.283821"
       r="10.5" />
    <circle
       style="fill:#d8efff;fill-opacity:1;stroke:none;stroke-width:6.07416;stroke-miterlimit:4;stroke-dasharray:none;stroke-opacity:1"
       id="path51155-7"
       cx="5.6102848"
       cy="97.73056"
       r="10.5" />
    <path
       style="fill:#d8efff;fill-opacity:1;stroke:none;stroke-width:5.31689;stroke-opacity:1"
       d=""
       id="path8821"
       transform="matrix(0.26458333,0,0,0.26458333,-14.730171,34.452267)" />
    <path
       style="fill:#d8efff;fill-opacity:1;stroke:none;stroke-width:0.939903;stroke-opacity:1"
       d=""
       id="path9094"
       transform="matrix(0.26458333,0,0,0.26458333,-14.730171,34.452267)" />
    <path
       style="fill:#d8efff;fill-opacity:1;stroke:none;stroke-width:0.939903;stroke-opacity:1"
       d=""
       id="path9250"
       transform="matrix(0.26458333,0,0,0.26458333,-14.730171,34.452267)" />
  </g>
  <g
     inkscape:groupmode="layer"
     id="layer2"
     inkscape:label="Layer 2"
     transform="translate(14.730171,-34.452267)" />
  <g
     inkscape:groupmode="layer"
     id="layer3"
     inkscape:label="Layer 3"
     transform="translate(14.730171,-34.452267)">
    <ellipse
       style="fill:#d8efff;fill-opacity:1;stroke:#d8efff;stroke-width:3.13746;stroke-miterlimit:4;stroke-dasharray:none;stroke-opacity:1"
       id="path47390"
       cx="9.8026552"
       cy="52.854595"
       rx="6.4312725"
       ry="6.4312706" />
    <ellipse
       style="fill:#d8efff;fill-opacity:1;stroke:#d8efff;stroke-width:3.13746;stroke-miterlimit:4;stroke-dasharray:none;stroke-opacity:1"
       id="path47390-7"
       cx="49.150429"
       cy="85.218246"
       rx="6.4312725"
       ry="6.4312706" />
    <ellipse
       style="fill:#d8efff;fill-opacity:1;stroke:#d8efff;stroke-width:3.13746;stroke-miterlimit:4;stroke-dasharray:none;stroke-opacity:1"
       id="path47390-0"
       cx="5.8903818"
       cy="97.506149"
       rx="6.4312725"
       ry="6.4312706" />
  </g>
</svg>
